<svg xmlns="http://www.w3.org/2000/svg" xmlns:xlink="http://www.w3.org/1999/xlink" width="80" height="31" viewBox="0 0 80 31"><defs><filter id="a" x="0" y="0" width="80" height="31" filterUnits="userSpaceOnUse"><feOffset dy="3" input="SourceAlpha"/><feGaussianBlur result="b"/><feFlood flood-color="#d33131"/><feComposite operator="in" in2="b"/><feComposite in="SourceGraphic"/></filter></defs><g transform="matrix(1, 0, 0, 1, 0, 0)" filter="url(#a)"><path d="M73.784,28l-2.152-4.925H60.974L58.822,28H52.5L63.741,4.217h4.988L80,28ZM62.99,18.419h6.626L66.3,10.8ZM44.908,28V24.008H35.07V28H28.922V0H35.07V19.083h9.838V0h6.148V28ZM21.28,28l-2.152-4.925H8.471L6.319,28H0L11.237,4.217h4.987L27.5,28Zm-10.794-9.58h6.627L13.8,10.8Z" fill="#fff"/></g></svg>