<svg width="180" height="180" viewBox="0 0 180 180" fill="none" xmlns="http://www.w3.org/2000/svg">
<path d="M150 45H62.25L124.2 19.95L119.1 7.5L24.3 46.125C18.825 48.225 15 53.775 15 60V150C15 158.25 21.675 165 30 165H150C158.325 165 165 158.25 165 150V60C165 51.675 158.325 45 150 45ZM150 60V82.5H135V67.5H120V82.5H30V60H150ZM30 150V97.5H150V150H30Z" fill="#DDDDDD"/>
<path d="M60 142.351C70.3553 142.351 78.75 133.956 78.75 123.601C78.75 113.245 70.3553 104.851 60 104.851C49.6447 104.851 41.25 113.245 41.25 123.601C41.25 133.956 49.6447 142.351 60 142.351Z" fill="#DDDDDD"/>
</svg>
