<svg xmlns="http://www.w3.org/2000/svg" width="618" height="407.878" viewBox="0 0 618 407.878"><g transform="translate(0 0)"><path d="M663.946,440.637l-60.667,28.711,53.69-40.147a302.978,302.978,0,0,0-29.315-38.576L364.561,456.019l237.647-90.654a302.922,302.922,0,0,0-34.51-26.3L166.807,403.634a300.445,300.445,0,0,0-65.8,187.5H704.457A300.282,300.282,0,0,0,663.946,440.637Z" transform="translate(-94.338 -183.859)" fill="#d84b5b"/><path d="M580.324,288.51A301.936,301.936,0,0,0,216.29,366.762C311.066,346,476.078,310.048,580.324,288.51Z" transform="translate(-139.773 -151.95)" fill="#d84b5b"/><circle cx="9.04" cy="9.04" r="9.04" transform="translate(490.862 147.496)" fill="#d84b5b" opacity="0.4"/><circle cx="6.341" cy="6.341" r="6.341" transform="translate(476.829 154.512)" fill="#d84b5b" opacity="0.4"/><circle cx="18.933" cy="18.933" r="18.933" transform="translate(53.017 161.559)" fill="#d84b5b" opacity="0.4"/><circle cx="13.281" cy="13.281" r="13.281" transform="translate(23.629 176.252)" fill="#d84b5b" opacity="0.4"/><rect width="618" height="1.212" transform="translate(0 406.666)" fill="#2f2e41"/><path d="M963.132,707.592,915,636.1s72.892,25.447,64.62,71.494Z" transform="translate(-415.147 -300.926)" fill="#3f3d56"/><path d="M986.408,707.592,1034.54,636.1s-72.892,25.447-64.62,71.494Z" transform="translate(-436.534 -300.926)" fill="#522d5b"/><path d="M241.641,203.722c0-3.936-5.613-7.127-12.536-7.127-.137,0-.273,0-.409.006-2.089-6.4-11.962-11.251-23.829-11.251-10.1,0-18.75,3.51-22.393,8.5a31.752,31.752,0,0,0-8.251-1.056c-10.616,0-19.223,4.893-19.223,10.929,0,5.483,7.1,10.022,16.361,10.807,6.728,1.23,17.238,2.022,29.049,2.022,20.053,0,34.725-3.825,35.093-6.7C239.178,208.608,241.641,206.329,241.641,203.722Z" transform="translate(-115.618 -123.278)" fill="#d84b5b"/><path d="M741.641,208.722c0-3.936-5.613-7.127-12.536-7.127-.137,0-.273,0-.409.006-2.089-6.4-11.962-11.251-23.829-11.251-10.1,0-18.75,3.51-22.393,8.5a31.752,31.752,0,0,0-8.251-1.057c-10.616,0-19.223,4.893-19.223,10.929,0,5.483,7.1,10.022,16.361,10.807,6.728,1.23,17.238,2.022,29.049,2.022,20.053,0,34.725-3.825,35.094-6.7C739.178,213.608,741.641,211.329,741.641,208.722Z" transform="translate(-312.676 -125.249)" fill="#d84b5b"/><path d="M978.076,115.151c0-6.909-9.852-12.51-22-12.51-.241,0-.478.006-.717.01-3.666-11.238-21-19.749-41.825-19.749-17.722,0-32.91,6.161-39.306,14.921a55.734,55.734,0,0,0-14.483-1.854c-18.634,0-33.74,8.588-33.74,19.182,0,9.624,12.466,17.59,28.718,18.97,11.81,2.159,30.256,3.549,50.988,3.549,35.2,0,60.952-6.714,61.6-11.761C973.75,123.727,978.076,119.727,978.076,115.151Z" transform="translate(-380.07 -82.902)" fill="#d84b5b"/><path d="M141.843,690.911l-1.212-.024a281.029,281.029,0,0,1,4.3-40.162c5.24-28.4,13.953-47.059,25.9-55.445l.7.992C143.623,615.862,141.857,690.162,141.843,690.911Z" transform="translate(-109.955 -284.839)" fill="#2f2e41"/><path d="M166.843,725.492l-1.212-.024c.026-1.342.783-32.969,13.234-41.71l.7.992C167.612,693.139,166.849,725.169,166.843,725.492Z" transform="translate(-119.808 -319.71)" fill="#2f2e41"/><circle cx="6.059" cy="6.059" r="6.059" transform="translate(62.406 299.425)" fill="#522d5b"/><circle cx="6.059" cy="6.059" r="6.059" transform="translate(59.406 351.531)" fill="#522d5b"/><path d="M157.739,594.923A26.913,26.913,0,0,1,155.91,608.7a24.527,24.527,0,0,1-4.123-26.338A26.917,26.917,0,0,1,157.739,594.923Z" transform="translate(-113.528 -279.748)" fill="#2f2e41"/><path d="M186.624,626.591a26.913,26.913,0,0,1-13.886.6,24.527,24.527,0,0,1,25.217-8.65A26.911,26.911,0,0,1,186.624,626.591Z" transform="translate(-122.609 -293.753)" fill="#2f2e41"/><path d="M189.695,704.406a18.863,18.863,0,0,1-9.733.42,17.191,17.191,0,0,1,17.675-6.063A18.863,18.863,0,0,1,189.695,704.406Z" transform="translate(-125.456 -325.423)" fill="#2f2e41"/><path d="M736.15,364.234a.933.933,0,0,0,.933-.933V353.35a.924.924,0,0,0-1.244-.876V341.223a3.11,3.11,0,0,0-3.11-3.11H631.046a3.11,3.11,0,0,0-3.11,3.11V477.734a3.11,3.11,0,0,0,3.11,3.11H732.73a3.11,3.11,0,0,0,3.11-3.11V378.17a.924.924,0,0,0,1.244-.876v-9.951a.924.924,0,0,0-1.244-.876v-2.291a.924.924,0,0,0,.311.057Z" transform="translate(109.178 -378.089) rotate(30)" fill="#3f3d56"/><path d="M739.1,356.453a3.11,3.11,0,0,1,3.11,3.11V483.947a3.11,3.11,0,0,1-3.11,3.11H649.855a3.11,3.11,0,0,1-3.11-3.11V359.563a3.11,3.11,0,0,1,3.11-3.11H739.1" transform="translate(104.412 -395.016) rotate(30)" fill="#fff"/><ellipse cx="1.244" cy="1.244" rx="1.244" ry="1.244" transform="translate(528.644 256.663) rotate(30)" fill="#fff"/><rect width="76.432" height="7.596" transform="translate(485.253 255.301) rotate(30)" fill="#d33131"/><rect width="76.432" height="2.877" transform="translate(476.308 270.795) rotate(30)" fill="#e6e6e6"/><rect width="76.432" height="2.877" transform="translate(471.917 278.4) rotate(30)" fill="#e6e6e6"/><rect width="39.492" height="2.877" transform="translate(467.471 286.101) rotate(30)" fill="#e6e6e6"/><rect width="76.432" height="2.877" transform="translate(462.946 293.938) rotate(30)" fill="#e6e6e6"/><rect width="76.432" height="2.877" transform="translate(458.421 301.776) rotate(30)" fill="#e6e6e6"/><rect width="38.17" height="2.877" transform="translate(453.896 309.613) rotate(30)" fill="#e6e6e6"/><rect width="76.432" height="2.877" transform="translate(449.371 317.451) rotate(30)" fill="#e6e6e6"/><rect width="76.432" height="2.877" transform="translate(444.846 325.289) rotate(30)" fill="#e6e6e6"/><rect width="24.136" height="7.935" transform="translate(484.664 361.095) rotate(30)" fill="#d33131"/><g transform="translate(55.448 253.309)"><path d="M595.584,124.769h57.177a12.155,12.155,0,0,1,11.857,9.482L693.509,262.4a9.824,9.824,0,0,1-9.1,11.972l-58.779,2.9a12.978,12.978,0,0,1-13.41-10.652l-16.389-90.6-1.219.348-3.135-17.172,1.255-.314-4.575-25.29a7.484,7.484,0,0,1,7.426-8.815Z" transform="translate(-588.039 -124.768)" fill="#3f3d56"/><path d="M663.932,136.395h6.674A8.4,8.4,0,0,1,678.813,143l27.731,127.1a5.205,5.205,0,0,1-4.745,6.3l-58.589,3.84a6.741,6.741,0,0,1-7.075-5.531L612.472,143.345a5.9,5.9,0,0,1,5.811-6.951h6.332a2.786,2.786,0,0,1,2.691,2.062h0a2.46,2.46,0,0,0,2.375,1.82h30.059a4.2,4.2,0,0,0,4.193-3.882Z" transform="translate(-606.736 -133.632)" fill="#fff"/><path d="M682.442,275.621a.481.481,0,0,1-.491-.389l-13.137-71.507a.475.475,0,0,1,.462-.561l59.77-.7h.005a.478.478,0,0,1,.464.371L745,272.024a.475.475,0,0,1-.441.578Z" transform="translate(-658.496 -184.003)" fill="#e6e6e6"/><path d="M741.309,529.535a.237.237,0,0,1,.231.184l.552,2.366a.238.238,0,0,1-.215.291l-31.184,2.216a.24.24,0,0,1-.25-.192l-.531-2.737a.237.237,0,0,1,.219-.282l31.163-1.845Z" transform="translate(-665.347 -433.35)" fill="#e6e6e6"/><path d="M704.979,568.549a.238.238,0,0,1-.25-.18l-.676-2.743a.238.238,0,0,1,.214-.294l39.824-2.785a.235.235,0,0,1,.245.169l.7,2.37a.237.237,0,0,1-.209.3Z" transform="translate(-666.904 -458.517)" fill="#e6e6e6"/><path d="M695.979,605.549a.238.238,0,0,1-.25-.18l-.676-2.743a.238.238,0,0,1,.214-.294l39.824-2.785a.235.235,0,0,1,.244.169l.7,2.37a.237.237,0,0,1-.209.3Z" transform="translate(-655.766 -486.724)" fill="#e6e6e6"/><path d="M685.232,661.826a.235.235,0,0,1-.253-.179l-1.429-5.715a.238.238,0,0,1,.211-.295l24.456-2.057a.242.242,0,0,1,.252.185l1.219,5.485a.238.238,0,0,1-.21.288Z" transform="translate(-626.677 -527.918)" fill="#d33131"/></g><g transform="translate(-180 -1358.759)"><path d="M237.952,91l-6.939-16.007h-34.37L189.7,91H169.325l36.242-77.3h16.083L258,91Zm-34.81-31.138h21.372L213.828,35.085ZM144.83,91V78.026H113.1V91H93.274V0H113.1V62.019H144.83V0h19.828V91Zm-76.2,0L61.688,74.993H27.32L20.379,91H0L36.242,13.7H52.325L88.678,91ZM33.817,59.862H55.189L44.5,35.085Z" transform="translate(352 1673.759)" fill="#d33131"/><path d="M237.952,91l-6.939-16.007h-34.37L189.7,91H169.325l36.242-77.3h16.083L258,91Zm-34.81-31.138h21.372L213.828,35.085ZM144.83,91V78.026H113.1V91H93.274V0H113.1V62.019H144.83V0h19.828V91Zm-76.2,0L61.688,74.993H27.32L20.379,91H0L36.242,13.7H52.325L88.678,91ZM33.817,59.862H55.189L44.5,35.085Z" transform="translate(352 1665.759)" fill="#fff"/></g></g></svg>