<svg width="128" height="40" viewBox="0 0 128 40" fill="none" xmlns="http://www.w3.org/2000/svg">
<path d="M25.3883 32.6675H11.8005L9.05684 39H1L15.3281 8.42169H21.6865L36.0581 39H28.1319L25.3883 32.6675ZM22.8188 26.6819L18.5944 16.8795L14.37 26.6819H22.8188Z" fill="#D33131"/>
<path d="M66.0967 3V39H58.2577V33.8675H45.7151V39H37.876V3H45.7151V27.5349H58.2577V3H66.0967Z" fill="#D33131"/>
<path d="M92.3301 32.6675H78.7424L75.9987 39H67.9419L82.27 8.42169H88.6283L103 39H95.0738L92.3301 32.6675ZM89.7606 26.6819L85.5362 16.8795L81.3118 26.6819H89.7606Z" fill="#D33131"/>
<g filter="url(#filter0_d)">
<path d="M25.3883 29.6675H11.8005L9.05684 36H1L15.3281 5.42169H21.6865L36.0581 36H28.1319L25.3883 29.6675ZM22.8188 23.6819L18.5944 13.8795L14.37 23.6819H22.8188Z" fill="white"/>
<path d="M66.0967 0V36H58.2577V30.8675H45.7151V36H37.876V0H45.7151V24.5349H58.2577V0H66.0967Z" fill="white"/>
<path d="M92.3301 29.6675H78.7424L75.9987 36H67.9419L82.27 5.42169H88.6283L103 36H95.0738L92.3301 29.6675ZM89.7606 23.6819L85.5362 13.8795L81.3118 23.6819H89.7606Z" fill="white"/>
</g>
<path d="M119.543 27.9257L113.93 26.4216L119.61 2.04387L126.813 3.97402L119.543 27.9257ZM115.723 30.9576C116.861 31.2626 117.681 31.8503 118.183 32.7206C118.701 33.5952 118.817 34.5673 118.53 35.637C118.248 36.6908 117.664 37.467 116.778 37.9655C115.908 38.4682 114.904 38.5671 113.766 38.2621C112.643 37.9613 111.823 37.3736 111.305 36.4991C110.803 35.6287 110.693 34.6666 110.976 33.6129C111.258 32.5591 111.834 31.7809 112.704 31.2782C113.594 30.7637 114.6 30.6568 115.723 30.9576Z" fill="#D33131"/>
<path d="M119.543 27.9257L113.93 26.4216L119.61 2.04387L126.813 3.97402L119.543 27.9257ZM115.723 30.9576C116.861 31.2626 117.681 31.8503 118.183 32.7206C118.701 33.5952 118.817 34.5673 118.53 35.637C118.248 36.6908 117.664 37.467 116.778 37.9655C115.908 38.4682 114.904 38.5671 113.766 38.2621C112.643 37.9613 111.823 37.3736 111.305 36.4991C110.803 35.6287 110.693 34.6666 110.976 33.6129C111.258 32.5591 111.834 31.7809 112.704 31.2782C113.594 30.7637 114.6 30.6568 115.723 30.9576Z" fill="#D33131"/>
<path d="M119.543 25.9257L113.93 24.4216L119.61 0.0438671L126.813 1.97402L119.543 25.9257ZM115.723 28.9576C116.861 29.2626 117.681 29.8503 118.183 30.7206C118.701 31.5952 118.817 32.5673 118.53 33.637C118.248 34.6908 117.664 35.467 116.778 35.9655C115.908 36.4682 114.904 36.5671 113.766 36.2621C112.643 35.9613 111.823 35.3736 111.305 34.4991C110.803 33.6287 110.693 32.6666 110.976 31.6129C111.258 30.5591 111.834 29.7809 112.704 29.2782C113.594 28.7637 114.6 28.6568 115.723 28.9576Z" fill="white"/>
<defs>
<filter id="filter0_d" x="1" y="0" width="102" height="39" filterUnits="userSpaceOnUse" color-interpolation-filters="sRGB">
<feFlood flood-opacity="0" result="BackgroundImageFix"/>
<feColorMatrix in="SourceAlpha" type="matrix" values="0 0 0 0 0 0 0 0 0 0 0 0 0 0 0 0 0 0 127 0"/>
<feOffset dy="3"/>
<feColorMatrix type="matrix" values="0 0 0 0 0.827451 0 0 0 0 0.192157 0 0 0 0 0.192157 0 0 0 1 0"/>
<feBlend mode="normal" in2="BackgroundImageFix" result="effect1_dropShadow"/>
<feBlend mode="normal" in="SourceGraphic" in2="effect1_dropShadow" result="shape"/>
</filter>
</defs>
</svg>
