<svg xmlns="http://www.w3.org/2000/svg" xmlns:xlink="http://www.w3.org/1999/xlink" width="295.597" height="87.225" viewBox="0 0 295.597 87.225"><defs><linearGradient id="a" x1="2.472" y1="1.035" x2="2.361" y2="1.005" gradientUnits="objectBoundingBox"><stop offset="0" stop-color="#00a0ff"/><stop offset="0.007" stop-color="#00a1ff"/><stop offset="0.26" stop-color="#00beff"/><stop offset="0.512" stop-color="#00d2ff"/><stop offset="0.76" stop-color="#00dfff"/><stop offset="1" stop-color="#00e3ff"/></linearGradient><linearGradient id="b" x1="1.95" y1="1.879" x2="1.69" y2="1.879" gradientUnits="objectBoundingBox"><stop offset="0" stop-color="#ffe000"/><stop offset="0.409" stop-color="#ffbd00"/><stop offset="0.775" stop-color="orange"/><stop offset="1" stop-color="#ff9c00"/></linearGradient><linearGradient id="c" x1="1.926" y1="0.946" x2="1.835" y2="0.793" gradientUnits="objectBoundingBox"><stop offset="0" stop-color="#ff3a44"/><stop offset="1" stop-color="#c31162"/></linearGradient><linearGradient id="d" x1="1.856" y1="2.093" x2="1.897" y2="2.025" gradientUnits="objectBoundingBox"><stop offset="0" stop-color="#32a071"/><stop offset="0.068" stop-color="#2da771"/><stop offset="0.476" stop-color="#15cf74"/><stop offset="0.801" stop-color="#06e775"/><stop offset="1" stop-color="#00f076"/></linearGradient></defs><path d="M284.645,87.225H10.952A10.958,10.958,0,0,1,0,76.322V10.9A10.944,10.944,0,0,1,10.952,0H284.645A10.947,10.947,0,0,1,295.6,10.9V76.322A10.961,10.961,0,0,1,284.645,87.225Z" fill-rule="evenodd"/><path d="M284.645,1.746a9.207,9.207,0,0,1,9.206,9.158V76.322a9.189,9.189,0,0,1-9.206,9.158H10.952a9.207,9.207,0,0,1-9.206-9.158V10.9a9.189,9.189,0,0,1,9.206-9.158Zm0-1.746H10.952A10.958,10.958,0,0,0,0,10.9V76.322a10.944,10.944,0,0,0,10.952,10.9H284.645a10.947,10.947,0,0,0,10.952-10.9V10.9A10.961,10.961,0,0,0,284.645,0Z" fill="#a6a6a6" fill-rule="evenodd"/><path d="M1720.062,285.4a6.637,6.637,0,0,1-4.954-2.05,6.984,6.984,0,0,1-2-5,6.827,6.827,0,0,1,2-5,6.616,6.616,0,0,1,4.948-2.05,6.706,6.706,0,0,1,4.954,2.05,7.24,7.24,0,0,1,0,9.995A6.58,6.58,0,0,1,1720.062,285.4Zm-58.735,0a6.882,6.882,0,0,1-4.977-2.023,7.048,7.048,0,0,1,4.977-12.072,6.93,6.93,0,0,1,2.778.576,5.619,5.619,0,0,1,2.116,1.512l.13.158L1664.878,275l-.153-.18a4.189,4.189,0,0,0-3.42-1.474,4.728,4.728,0,0,0-3.41,1.392,5.288,5.288,0,0,0,0,7.243,4.985,4.985,0,0,0,6.912,0,3.76,3.76,0,0,0,1-2.268h-4.726v-2.034h6.754l.027.185a7.441,7.441,0,0,1,.1,1.022,6.124,6.124,0,0,1-1.686,4.514A6.579,6.579,0,0,1,1661.327,285.4Zm78.094-.288h-2.082l-6.379-10.207.054,1.838v8.364h-2.082V271.594h2.377l.064.1,6,9.614-.054-1.833v-7.885h2.1Zm-35.01,0H1702.3V273.628h-3.659v-2.034h9.423v2.034h-3.659v11.485Zm-7.488,0h-2.1V271.594h2.1Zm-11.827,0h-2.105V273.628h-3.659v-2.034h9.425v2.034h-3.66Zm-7.1-.022h-8.07v-13.5H1678v2.034h-5.961v3.709h5.379v2.012h-5.379v3.709H1678Zm38.653-3.138a4.656,4.656,0,0,0,3.409,1.414,4.538,4.538,0,0,0,3.41-1.414,5.361,5.361,0,0,0,.006-7.2,4.667,4.667,0,0,0-3.41-1.414,4.52,4.52,0,0,0-3.4,1.414,5.365,5.365,0,0,0-.011,7.2Z" transform="translate(-1564.341 -256.547)" fill="#fff"/><path d="M1705.723,693.3a9.277,9.277,0,1,0,9.3,9.277A9.132,9.132,0,0,0,1705.723,693.3Zm0,14.878a5.637,5.637,0,1,1,5.232-5.622A5.369,5.369,0,0,1,1705.723,708.178Zm-20.3-14.878a9.277,9.277,0,1,0,9.3,9.277A9.132,9.132,0,0,0,1685.423,693.3Zm0,14.878a5.637,5.637,0,1,1,5.232-5.622A5.368,5.368,0,0,1,1685.423,708.178Zm-24.156-12.045v3.926h9.424A8.268,8.268,0,0,1,1668.56,705a9.616,9.616,0,0,1-7.271,2.882,10.469,10.469,0,0,1,0-20.936,10.06,10.06,0,0,1,7.1,2.812l2.785-2.784a13.7,13.7,0,0,0-9.859-3.975,14.4,14.4,0,1,0,0,28.789,13.177,13.177,0,0,0,10.054-4.046,13.027,13.027,0,0,0,3.415-9.206,12.112,12.112,0,0,0-.218-2.447h-13.3C1661.267,696.084,1661.267,696.133,1661.267,696.133Zm98.8,3.057c-.777-2.083-3.127-5.911-7.945-5.911-4.775,0-8.745,3.758-8.745,9.278a9.068,9.068,0,0,0,9.208,9.277,9.207,9.207,0,0,0,7.727-4.117l-3.148-2.11a5.274,5.274,0,0,1-4.556,2.567,4.74,4.74,0,0,1-4.509-2.811l12.4-5.139C1760.505,700.227,1760.07,699.189,1760.07,699.189Zm-12.649,3.1a5.091,5.091,0,0,1,4.845-5.405,3.578,3.578,0,0,1,3.443,1.963Zm-10.076,8.989h4.072V684.022h-4.072Zm-6.689-15.917h-.146a6.428,6.428,0,0,0-4.894-2.083,9.277,9.277,0,0,0,0,18.538,6.406,6.406,0,0,0,4.894-2.11h.146v1.333c0,3.54-1.892,5.449-4.942,5.449a5.143,5.143,0,0,1-4.677-3.3l-3.54,1.479a8.855,8.855,0,0,0,8.212,5.476c4.775,0,8.82-2.812,8.82-9.669V693.833h-3.85v1.528Zm-4.677,12.817a5.64,5.64,0,0,1,0-11.24c2.785,0,4.943,2.4,4.943,5.644C1730.95,705.829,1728.769,708.178,1725.979,708.178Zm53.161-24.155H1769.4v27.255h4.073V700.956h5.671c4.508,0,8.941-3.268,8.941-8.456S1783.671,684.022,1779.141,684.022Zm.12,13.127h-5.792V687.8h5.792a4.678,4.678,0,1,1,0,9.353Zm25.15-3.9c-2.958,0-6.008,1.311-7.27,4.166l3.61,1.5a3.874,3.874,0,0,1,3.709-2.012c2.109,0,4.242,1.262,4.29,3.513v.288a9.116,9.116,0,0,0-4.242-1.044c-3.9,0-7.852,2.132-7.852,6.128,0,3.66,3.2,6.009,6.759,6.009a5.732,5.732,0,0,0,5.183-2.664h.147v2.11h3.926V700.8C1812.671,695.943,1809.061,693.251,1804.411,693.251Zm-.51,14.927c-1.333,0-3.2-.652-3.2-2.328,0-2.11,2.328-2.909,4.313-2.909a7.065,7.065,0,0,1,3.708.919A4.9,4.9,0,0,1,1803.9,708.178ZM1827,693.833l-4.676,11.822h-.147l-4.846-11.822h-4.382l7.271,16.526-4.143,9.185h4.24l11.186-25.711Zm-36.662,17.445h4.072V684.022h-4.072Z" transform="translate(-1557.152 -645.859)" fill="#fff" fill-rule="evenodd"/><path d="M401.1,299.547a4.416,4.416,0,0,0-1,3.078v48.219a4.2,4.2,0,0,0,1.017,3.051l.169.147L428.3,327.025v-.6L401.264,299.4Z" transform="translate(-378.343 -283.119)" fill-rule="evenodd" fill="url(#a)"/><path d="M927.311,649.152l-9.011-9.011v-.631l9.011-9.011.2.12,10.658,6.058c3.051,1.719,3.051,4.557,0,6.3l-10.658,6.058Z" transform="translate(-868.363 -596.214)" fill-rule="evenodd" fill="url(#b)"/><path d="M454.791,811.207,445.584,802,418.4,829.184c.995,1.066,2.665,1.185,4.53.147l31.861-18.125" transform="translate(-395.647 -758.388)" fill-rule="evenodd" fill="url(#c)"/><path d="M454.791,305.308l-31.861-18.1c-1.865-1.066-3.54-.919-4.53.147l27.184,27.157Z" transform="translate(-395.647 -270.902)" fill-rule="evenodd" fill="url(#d)"/><path d="M454.974,967.7,423.33,985.678c-1.767,1.017-3.344.946-4.361.022l-.169.168.169.147c1.017.919,2.594.995,4.361-.022l31.861-18.1Z" transform="translate(-396.026 -915.077)" fill-rule="evenodd" opacity="0.2"/><path d="M1094.381,804.833,1083.5,811.01l.2.2,10.66-6.058a3.819,3.819,0,0,0,2.278-3.149A3.924,3.924,0,0,1,1094.381,804.833Z" transform="translate(-1024.58 -758.387)" fill-rule="evenodd" opacity="0.12"/><path d="M405.625,287.36l42.52,24.156a4.006,4.006,0,0,1,2.279,2.833,3.819,3.819,0,0,0-2.279-3.148l-42.52-24.156c-3.051-1.746-5.525-.288-5.525,3.2v.315C400.1,287.067,402.574,285.637,405.625,287.36Z" transform="translate(-378.343 -270.737)" fill="#fff" fill-rule="evenodd" opacity="0.25"/></svg>