<svg xmlns="http://www.w3.org/2000/svg" width="322.001" height="290.077" viewBox="0 0 322.001 290.077">
  <g id="Group_16" data-name="Group 16" transform="translate(-300.646 -5882.917)">
    <g id="undraw_mobile_devices_k1ok" transform="translate(262 5882.917)">
      <path id="Path_52" data-name="Path 52" d="M462.968,565.2h-3.339l1.113-65.286h1.113Z" transform="translate(-252.955 -275.124)" fill="#e6e6e6"/>
      <path id="Path_53" data-name="Path 53" d="M603.077,494.992l5.38-8.315a124.686,124.686,0,0,0-5.52-12.921l-3.479,2.81,2.755-4.257c-2.625-5.168-4.691-8.423-4.691-8.423s-10.79,17-14.395,35.005l6.9,10.67-7.643-6.173a50.438,50.438,0,0,0-.419,6.324c0,21.321,6.963,38.6,15.553,38.6s15.553-17.284,15.553-38.6a66.4,66.4,0,0,0-3.558-19.922Z" transform="translate(-390.431 -311.367)" fill="#e6e6e6"/>
      <path id="Path_54" data-name="Path 54" d="M274.93,565.2h-3.338L272.7,499.91h1.112Z" transform="translate(-149.47 -275.124)" fill="#e6e6e6"/>
      <path id="Path_55" data-name="Path 55" d="M417.823,494.992l5.38-8.315a124.662,124.662,0,0,0-5.52-12.921l-3.479,2.81,2.755-4.257c-2.625-5.168-4.691-8.423-4.691-8.423s-10.79,17-14.395,35.005l6.9,10.67-7.643-6.173a50.431,50.431,0,0,0-.419,6.324c0,21.321,6.963,38.6,15.553,38.6s15.553-17.284,15.553-38.6a66.4,66.4,0,0,0-3.558-19.922Z" transform="translate(-288.477 -311.367)" fill="#e6e6e6"/>
      <path id="Path_56" data-name="Path 56" d="M363.113,480.3h-6.677l2.226-134.28h2.226Z" transform="translate(-196.163 -190.432)" fill="#e6e6e6"/>
      <path id="Path_57" data-name="Path 57" d="M486.926,203.932l11.093-17.144a257.023,257.023,0,0,0-11.381-26.641l-7.173,5.794,5.68-8.778c-5.413-10.655-9.672-17.368-9.672-17.368s-22.248,35.059-29.68,72.178l14.235,22-15.759-12.728a103.979,103.979,0,0,0-.865,13.039c0,43.961,14.358,79.6,32.069,79.6s32.069-35.638,32.069-79.6c0-13.628-3.083-27.887-7.336-41.076Z" transform="translate(-314.172 -133.004)" fill="#e6e6e6"/>
      <ellipse id="Ellipse_9" data-name="Ellipse 9" cx="30.788" cy="30.788" rx="30.788" ry="30.788" transform="translate(103.746 0)" fill="#e6e6e6"/>
      <path id="Path_58" data-name="Path 58" d="M775.106,373.637a1.269,1.269,0,0,0,1.269-1.269V358.835a1.257,1.257,0,0,0-1.692-1.191v-15.3a4.229,4.229,0,0,0-4.229-4.229H632.165a4.229,4.229,0,0,0-4.229,4.229V528a4.229,4.229,0,0,0,4.229,4.229H770.454A4.229,4.229,0,0,0,774.683,528V392.59a1.257,1.257,0,0,0,1.692-1.191V377.866a1.257,1.257,0,0,0-1.692-1.191v-3.116a1.255,1.255,0,0,0,.423.078Z" transform="translate(-415.728 -242.148)" fill="#3f3d56"/>
      <path id="Path_59" data-name="Path 59" d="M772.348,356.453a4.229,4.229,0,0,1,4.229,4.229V529.843a4.229,4.229,0,0,1-4.229,4.229H650.975a4.229,4.229,0,0,1-4.229-4.229V360.682a4.229,4.229,0,0,1,4.229-4.229H772.348" transform="translate(-426.08 -252.242)" fill="#fff"/>
      <ellipse id="Ellipse_10" data-name="Ellipse 10" cx="1.692" cy="1.692" rx="1.692" ry="1.692" transform="translate(283.89 98.502)" fill="#fff"/>
      <rect id="Rectangle_41" data-name="Rectangle 41" width="103.946" height="10.33" transform="translate(231.859 126.402)" fill="#d84b5b"/>
      <rect id="Rectangle_42" data-name="Rectangle 42" width="103.946" height="3.913" transform="translate(231.859 150.735)" fill="#e6e6e6"/>
      <rect id="Rectangle_43" data-name="Rectangle 43" width="103.946" height="3.913" transform="translate(231.859 162.677)" fill="#e6e6e6"/>
      <rect id="Rectangle_44" data-name="Rectangle 44" width="53.709" height="3.913" transform="translate(231.859 174.77)" fill="#e6e6e6"/>
      <rect id="Rectangle_45" data-name="Rectangle 45" width="103.946" height="3.913" transform="translate(231.859 187.078)" fill="#e6e6e6"/>
      <rect id="Rectangle_46" data-name="Rectangle 46" width="103.946" height="3.913" transform="translate(231.859 199.386)" fill="#e6e6e6"/>
      <rect id="Rectangle_47" data-name="Rectangle 47" width="51.91" height="3.913" transform="translate(231.859 211.694)" fill="#e6e6e6"/>
      <rect id="Rectangle_48" data-name="Rectangle 48" width="103.946" height="3.913" transform="translate(231.859 224.002)" fill="#e6e6e6"/>
      <rect id="Rectangle_49" data-name="Rectangle 49" width="103.946" height="3.913" transform="translate(231.859 236.31)" fill="#e6e6e6"/>
      <rect id="Rectangle_50" data-name="Rectangle 50" width="32.825" height="10.792" transform="translate(303.104 251.406)" fill="#d84b5b"/>
      <path id="Path_60" data-name="Path 60" d="M323.783,443.108h-.74v-24.63a14.317,14.317,0,0,0-14.317-14.317H256.262a14.317,14.317,0,0,0-14.317,14.317v135.78a14.317,14.317,0,0,0,14.317,14.317h52.464a14.317,14.317,0,0,0,14.317-14.317V460.61h.739Z" transform="translate(-203.3 -278.498)" fill="#3f3d56"/>
      <path id="Path_61" data-name="Path 61" d="M324.666,422.022V558.465a10.692,10.692,0,0,1-10.692,10.692H261.409a10.692,10.692,0,0,1-10.692-10.692V422.022a9.637,9.637,0,0,1,9.637-9.637h7.421a5.217,5.217,0,0,0,.227,4.367,5.1,5.1,0,0,0,4.172,2.535h30.582a5.1,5.1,0,0,0,4.172-2.536,5.218,5.218,0,0,0,.227-4.366h7.872a9.637,9.637,0,0,1,9.637,9.637Z" transform="translate(-208.127 -283.024)" fill="#fff"/>
      <rect id="Rectangle_51" data-name="Rectangle 51" width="57.625" height="5.727" transform="translate(50.649 168.031)" fill="#d84b5b"/>
      <rect id="Rectangle_52" data-name="Rectangle 52" width="57.625" height="2.169" transform="translate(50.649 181.52)" fill="#e6e6e6"/>
      <rect id="Rectangle_53" data-name="Rectangle 53" width="57.625" height="2.169" transform="translate(50.649 188.14)" fill="#e6e6e6"/>
      <rect id="Rectangle_54" data-name="Rectangle 54" width="29.775" height="2.169" transform="translate(50.649 194.844)" fill="#e6e6e6"/>
      <rect id="Rectangle_55" data-name="Rectangle 55" width="57.625" height="2.169" transform="translate(50.649 201.667)" fill="#e6e6e6"/>
      <rect id="Rectangle_56" data-name="Rectangle 56" width="57.625" height="2.169" transform="translate(50.649 208.491)" fill="#e6e6e6"/>
      <rect id="Rectangle_57" data-name="Rectangle 57" width="28.778" height="2.169" transform="translate(50.649 215.314)" fill="#e6e6e6"/>
      <rect id="Rectangle_58" data-name="Rectangle 58" width="57.625" height="2.169" transform="translate(50.649 222.137)" fill="#e6e6e6"/>
      <rect id="Rectangle_59" data-name="Rectangle 59" width="57.625" height="2.169" transform="translate(50.649 228.96)" fill="#e6e6e6"/>
      <rect id="Rectangle_60" data-name="Rectangle 60" width="18.197" height="5.983" transform="translate(90.145 237.329)" fill="#d84b5b"/>
    </g>
  </g>
</svg>
