<svg width="113" height="113" viewBox="0 0 113 113" fill="none" xmlns="http://www.w3.org/2000/svg">
<g opacity="0.6">
<path d="M53.5092 75.0899L71.2536 52.4841L44.5836 41.7792L53.5092 75.0899ZM46.5315 19.4391C26.1009 24.9135 13.9625 45.9378 19.4368 66.3684C24.9112 86.799 45.9355 98.9374 66.3661 93.463C86.7967 87.9886 98.9351 66.9643 93.4607 46.5337C87.9864 26.1032 66.9621 13.9648 46.5315 19.4391ZM64.3826 86.0606C48.0604 90.4342 31.2128 80.7072 26.8392 64.3849C22.4657 48.0627 32.1927 31.2151 48.5149 26.8415C64.8372 22.468 81.6848 32.1949 86.0583 48.5172C90.4319 64.8395 80.7049 81.6871 64.3826 86.0606Z" fill="#FFA7A7"/>
</g>
</svg>
