<svg width="33" height="33" viewBox="0 0 33 33" fill="none" xmlns="http://www.w3.org/2000/svg">
<path d="M26.5892 10.7324L16.1969 4.73242C15.2443 4.18242 14.0148 4.51184 13.4648 5.46447L5.46484 19.3209C4.91484 20.2735 5.24427 21.5029 6.19689 22.0529L16.5892 28.0529C17.5418 28.6029 18.7712 28.2735 19.3212 27.3209L27.3212 13.4645C27.8712 12.5118 27.5418 11.2824 26.5892 10.7324ZM17.795 7.96447L19.527 8.96447L17.027 13.2946L16.536 12.1451L15.295 12.2946L17.795 7.96447ZM17.5892 26.3209L7.19689 20.3209L15.1969 6.46447L16.0629 6.96447L11.5629 14.7587L15.286 14.3101L16.7591 17.7587L21.2591 9.96447L25.5892 12.4645L17.5892 26.3209Z" fill="#FFA7A7"/>
</svg>
