<svg width="118" height="120" viewBox="0 0 118 120" fill="none" xmlns="http://www.w3.org/2000/svg">
<g opacity="0.4">
<path d="M69.2549 29.0369C66.0176 29.5896 62.8374 30.8253 60.0191 32.3953C55.3219 35.0121 50.9073 38.9007 49.1853 43.7907C43.9217 42.7923 38.2192 44.5398 33.522 47.1565C28.8248 49.7733 24.4102 53.6619 22.6882 58.5519L46.2725 97.7634C46.675 98.4325 47.6797 98.7661 48.2819 98.4307C48.5228 98.2965 48.5627 98.0955 48.8036 97.9614C51.0091 94.41 54.9819 90.5888 58.4747 88.643C63.1719 86.0262 68.8744 84.2788 74.138 85.2772C76.0215 81.1906 80.8767 76.1631 84.9718 73.8818C88.9463 71.6676 93.5243 70.1893 98.104 70.318C98.4254 70.3177 98.5458 70.2506 98.7867 70.1164C99.3889 69.7809 99.5887 68.7763 99.1862 68.1071L75.6824 29.0296C73.5127 28.6303 71.464 28.6995 69.2549 29.0369ZM90.9879 65.1702C87.7747 65.7096 84.6426 66.9184 81.7521 68.5287C77.657 70.81 72.8018 75.8375 70.9183 79.9241L52.405 49.1438C54.2885 45.0572 59.1438 40.0297 63.2388 37.7484C66.1294 36.1381 69.2614 34.9293 72.4746 34.39L90.9879 65.1702Z" fill="#FFA7A7"/>
<path d="M70.6796 48.3309C72.8433 47.1187 75.0814 46.1957 77.2547 45.6031L74.751 41.4181C72.5615 42.0933 70.3233 43.0163 68.2088 44.2009C64.029 46.5426 60.7202 49.4623 58.5117 52.6846L61.246 57.2551C62.9702 53.9365 66.2539 50.8103 70.6796 48.3309Z" fill="#FFA7A7"/>
<path d="M62.3906 59.4044L65.1249 63.9748C66.8491 60.6562 70.1328 57.53 74.5585 55.0506C76.7222 53.8384 78.9604 52.9154 81.1336 52.3228L78.6299 48.1378C76.4404 48.813 74.2023 49.736 72.0877 50.9206C67.9079 53.2623 64.6156 56.2096 62.3906 59.4044Z" fill="#FFA7A7"/>
<path d="M75.9823 57.6638C71.8024 60.0055 68.4937 62.9252 66.2851 66.1475L69.0194 70.718C70.7436 67.3994 74.0273 64.2732 78.453 61.7938C80.6167 60.5816 82.8549 59.6586 85.0281 59.066L82.5244 54.881C80.3185 55.5286 78.0968 56.4792 75.9823 57.6638Z" fill="#FFA7A7"/>
</g>
</svg>
