<svg width="33" height="33" viewBox="0 0 33 33" fill="none" xmlns="http://www.w3.org/2000/svg">
<path d="M6.22878 14.171L4.43181 15.049L10.5779 27.6278C11.0608 28.6161 12.2646 29.0296 13.2529 28.5467L25.8317 22.4006L24.9537 20.6036L12.3749 26.7498L6.22878 14.171ZM18.8485 3.55293L8.06668 8.82103C7.07835 9.30394 6.66482 10.5077 7.14773 11.496L12.4158 22.2778C12.8987 23.2661 14.1025 23.6797 15.0908 23.1968L25.8726 17.9287C26.8609 17.4458 27.2745 16.242 26.7916 15.2537L21.5235 4.47188C21.0406 3.48355 19.8368 3.07002 18.8485 3.55293ZM24.9946 16.1317L14.2128 21.3998L8.9447 10.618L19.7265 5.3499L24.9946 16.1317ZM13.1971 10.2097L17.1482 18.296L20.5636 11.6188L13.1971 10.2097Z" fill="#FFA7A7"/>
</svg>
