<svg width="34" height="34" viewBox="0 0 34 34" fill="none" xmlns="http://www.w3.org/2000/svg">
<g clip-path="url(#clip0)">
<path d="M20.1583 7.20783L10.2159 13.3753L15.4745 6.18288L14.0216 5.13069L5.99502 16.17C5.52227 16.7928 5.47896 17.6904 5.91648 18.3958L12.242 28.5932C12.8219 29.5279 14.0526 29.8236 14.9959 29.2385L28.5924 20.8044C29.5357 20.2193 29.8176 18.9853 29.2377 18.0506L22.9122 7.85314C22.327 6.90988 21.1016 6.62272 20.1583 7.20783ZM21.2126 8.9074L22.794 11.4568L21.0944 12.511L20.0402 10.8114L18.3406 11.8657L19.3948 13.5653L9.19744 19.8908L7.61605 17.3415L21.2126 8.9074ZM13.9416 27.5389L10.2517 21.5904L23.8482 13.1563L27.5382 19.1048L13.9416 27.5389Z" fill="#FFA7A7"/>
<path d="M16.8031 24.5629C17.9764 23.8351 18.3375 22.294 17.6097 21.1206C16.8819 19.9473 15.3407 19.5862 14.1674 20.314C12.9941 21.0418 12.633 22.583 13.3608 23.7563C14.0886 24.9296 15.6298 25.2907 16.8031 24.5629Z" fill="#FFA7A7"/>
</g>
<defs>
<clipPath id="clip0">
<rect width="24" height="24" fill="white" transform="translate(0 12.6514) rotate(-31.8118)"/>
</clipPath>
</defs>
</svg>
